<svg width="current" height="current" viewBox="0 0 98 17" fill="none" xmlns="http://www.w3.org/2000/svg">
<path d="M0.488 13C0.349333 13 0.28 12.9307 0.28 12.792V1.464C0.28 1.32533 0.349333 1.256 0.488 1.256H4.392C6.344 1.256 7.82133 1.77333 8.824 2.808C9.82667 3.84267 10.328 5.28267 10.328 7.128C10.328 8.96267 9.82667 10.4027 8.824 11.448C7.82133 12.4827 6.344 13 4.392 13H0.488ZM4.152 3.288H2.44V10.968H4.152C5.45333 10.968 6.43467 10.6373 7.096 9.976C7.75733 9.304 8.088 8.35467 8.088 7.128C8.088 5.89067 7.75733 4.94133 7.096 4.28C6.43467 3.61867 5.45333 3.288 4.152 3.288ZM15.6988 13.16C14.9094 13.16 14.2214 12.9787 13.6348 12.616C13.0588 12.2533 12.6108 11.7467 12.2908 11.096C11.9814 10.4453 11.8268 9.69867 11.8268 8.856C11.8268 8.00267 11.9814 7.256 12.2908 6.616C12.6108 5.96533 13.0588 5.45867 13.6348 5.096C14.2214 4.73333 14.9094 4.552 15.6988 4.552C16.2748 4.552 16.7921 4.66933 17.2508 4.904C17.7201 5.128 18.1041 5.44267 18.4028 5.848L18.4508 4.92C18.4508 4.78133 18.5254 4.712 18.6748 4.712H20.1788C20.3174 4.712 20.3868 4.78133 20.3868 4.92V12.792C20.3868 12.9307 20.3174 13 20.1788 13H18.6748C18.5254 13 18.4508 12.9307 18.4508 12.792L18.4028 11.864C18.1041 12.2693 17.7201 12.5893 17.2508 12.824C16.7921 13.048 16.2748 13.16 15.6988 13.16ZM16.2108 11.272C16.8721 11.272 17.4108 11.048 17.8268 10.6C18.2428 10.152 18.4508 9.57067 18.4508 8.856C18.4508 8.14133 18.2428 7.56 17.8268 7.112C17.4108 6.664 16.8721 6.44 16.2108 6.44C15.5494 6.44 15.0108 6.664 14.5948 7.112C14.1788 7.56 13.9708 8.14133 13.9708 8.856C13.9708 9.57067 14.1788 10.152 14.5948 10.6C15.0108 11.048 15.5494 11.272 16.2108 11.272ZM23.5968 3.24C23.2554 3.24 22.9674 3.13333 22.7328 2.92C22.4981 2.70667 22.3808 2.42933 22.3808 2.088C22.3808 1.74667 22.4981 1.46933 22.7328 1.256C22.9674 1.04267 23.2554 0.936 23.5968 0.936C23.9381 0.936 24.2261 1.04267 24.4608 1.256C24.6954 1.46933 24.8128 1.74667 24.8128 2.088C24.8128 2.42933 24.6954 2.70667 24.4608 2.92C24.2261 3.13333 23.9381 3.24 23.5968 3.24ZM22.7648 13C22.6261 13 22.5568 12.9307 22.5568 12.792V4.92C22.5568 4.78133 22.6261 4.712 22.7648 4.712H24.4288C24.5674 4.712 24.6368 4.78133 24.6368 4.92V12.792C24.6368 12.9307 24.5674 13 24.4288 13H22.7648ZM27.0148 13C26.8761 13 26.8068 12.9307 26.8068 12.792V1.208C26.8068 1.06933 26.8761 0.999999 27.0148 0.999999H28.6788C28.8174 0.999999 28.8868 1.06933 28.8868 1.208V12.792C28.8868 12.9307 28.8174 13 28.6788 13H27.0148ZM32.2888 16.488C32.1288 16.488 32.0754 16.408 32.1288 16.248L33.6488 12.472L30.3208 4.952C30.2461 4.792 30.2994 4.712 30.4808 4.712H32.4648C32.5821 4.712 32.6621 4.76533 32.7048 4.872L34.7208 9.96L36.6888 4.872C36.7314 4.76533 36.8114 4.712 36.9288 4.712H38.7528C38.8274 4.712 38.8808 4.73333 38.9128 4.776C38.9448 4.81867 38.9448 4.87733 38.9128 4.952L34.2728 16.328C34.2301 16.4347 34.1501 16.488 34.0328 16.488H32.2888ZM40.5616 13C40.423 13 40.3536 12.9307 40.3536 12.792V4.92C40.3536 4.78133 40.423 4.712 40.5616 4.712H42.0656C42.215 4.712 42.2896 4.78133 42.2896 4.92L42.3376 5.912C42.6256 5.464 43.0043 5.128 43.4736 4.904C43.9536 4.66933 44.4496 4.552 44.9616 4.552C45.591 4.552 46.1243 4.68533 46.5616 4.952C47.0096 5.208 47.3456 5.58133 47.5696 6.072C47.8683 5.57067 48.2736 5.192 48.7856 4.936C49.2976 4.68 49.8363 4.552 50.4016 4.552C51.3083 4.552 52.0176 4.824 52.5296 5.368C53.0523 5.912 53.3136 6.65867 53.3136 7.608V12.792C53.3136 12.9307 53.2443 13 53.1056 13H51.4416C51.303 13 51.2336 12.9307 51.2336 12.792V8.456C51.2336 7.112 50.743 6.44 49.7616 6.44C49.271 6.44 48.8336 6.632 48.4496 7.016C48.0656 7.4 47.8736 7.98667 47.8736 8.776V12.792C47.8736 12.9307 47.8043 13 47.6656 13H46.0016C45.863 13 45.7936 12.9307 45.7936 12.792V8.456C45.7936 7.112 45.303 6.44 44.3216 6.44C43.831 6.44 43.3936 6.632 43.0096 7.016C42.6256 7.4 42.4336 7.98667 42.4336 8.776V12.792C42.4336 12.9307 42.3643 13 42.2256 13H40.5616ZM56.4718 3.24C56.1304 3.24 55.8424 3.13333 55.6078 2.92C55.3731 2.70667 55.2558 2.42933 55.2558 2.088C55.2558 1.74667 55.3731 1.46933 55.6078 1.256C55.8424 1.04267 56.1304 0.936 56.4718 0.936C56.8131 0.936 57.1011 1.04267 57.3358 1.256C57.5704 1.46933 57.6878 1.74667 57.6878 2.088C57.6878 2.42933 57.5704 2.70667 57.3358 2.92C57.1011 3.13333 56.8131 3.24 56.4718 3.24ZM55.6398 13C55.5011 13 55.4318 12.9307 55.4318 12.792V4.92C55.4318 4.78133 55.5011 4.712 55.6398 4.712H57.3038C57.4424 4.712 57.5118 4.78133 57.5118 4.92V12.792C57.5118 12.9307 57.4424 13 57.3038 13H55.6398ZM62.6578 13.16C61.7511 13.16 60.9884 12.9733 60.3698 12.6C59.7618 12.216 59.3244 11.6667 59.0578 10.952C59.0044 10.8133 59.0524 10.728 59.2018 10.696L60.6578 10.296C60.7751 10.264 60.8604 10.3067 60.9138 10.424C61.1058 10.7547 61.3404 10.9893 61.6178 11.128C61.9058 11.256 62.2258 11.32 62.5778 11.32C62.9298 11.32 63.2178 11.2773 63.4418 11.192C63.6764 11.1067 63.7938 10.9467 63.7938 10.712C63.7938 10.5307 63.6978 10.3867 63.5058 10.28C63.3138 10.1627 62.9991 10.04 62.5618 9.912L62.1618 9.8C61.1698 9.52267 60.4604 9.144 60.0338 8.664C59.6178 8.184 59.4098 7.624 59.4098 6.984C59.4098 6.51467 59.5431 6.09867 59.8098 5.736C60.0764 5.36267 60.4444 5.07467 60.9138 4.872C61.3938 4.65867 61.9431 4.552 62.5618 4.552C63.3618 4.552 64.0391 4.72267 64.5938 5.064C65.1484 5.40533 65.5538 5.928 65.8098 6.632C65.8631 6.77067 65.8204 6.856 65.6818 6.888L64.2258 7.352C64.1084 7.39467 64.0178 7.35733 63.9538 7.24C63.8151 6.984 63.6284 6.78133 63.3938 6.632C63.1698 6.472 62.8818 6.392 62.5298 6.392C62.2631 6.392 62.0338 6.44 61.8418 6.536C61.6498 6.62133 61.5538 6.77067 61.5538 6.984C61.5538 7.176 61.6498 7.336 61.8418 7.464C62.0444 7.58133 62.3751 7.69867 62.8338 7.816L63.2178 7.912C64.2311 8.168 64.9351 8.52 65.3298 8.968C65.7351 9.40533 65.9378 9.97067 65.9378 10.664C65.9378 11.1653 65.7938 11.608 65.5058 11.992C65.2284 12.3653 64.8444 12.6533 64.3538 12.856C63.8631 13.0587 63.2978 13.16 62.6578 13.16ZM70.4859 13.16C69.5792 13.16 68.8165 12.9733 68.1979 12.6C67.5899 12.216 67.1525 11.6667 66.8859 10.952C66.8325 10.8133 66.8805 10.728 67.0299 10.696L68.4859 10.296C68.6032 10.264 68.6885 10.3067 68.7419 10.424C68.9339 10.7547 69.1685 10.9893 69.4459 11.128C69.7339 11.256 70.0539 11.32 70.4059 11.32C70.7579 11.32 71.0459 11.2773 71.2699 11.192C71.5045 11.1067 71.6219 10.9467 71.6219 10.712C71.6219 10.5307 71.5259 10.3867 71.3339 10.28C71.1419 10.1627 70.8272 10.04 70.3899 9.912L69.9899 9.8C68.9979 9.52267 68.2885 9.144 67.8619 8.664C67.4459 8.184 67.2379 7.624 67.2379 6.984C67.2379 6.51467 67.3712 6.09867 67.6379 5.736C67.9045 5.36267 68.2725 5.07467 68.7419 4.872C69.2219 4.65867 69.7712 4.552 70.3899 4.552C71.1899 4.552 71.8672 4.72267 72.4219 5.064C72.9765 5.40533 73.3819 5.928 73.6379 6.632C73.6912 6.77067 73.6485 6.856 73.5099 6.888L72.0539 7.352C71.9365 7.39467 71.8459 7.35733 71.7819 7.24C71.6432 6.984 71.4565 6.78133 71.2219 6.632C70.9979 6.472 70.7099 6.392 70.3579 6.392C70.0912 6.392 69.8619 6.44 69.6699 6.536C69.4779 6.62133 69.3819 6.77067 69.3819 6.984C69.3819 7.176 69.4779 7.336 69.6699 7.464C69.8725 7.58133 70.2032 7.69867 70.6619 7.816L71.0459 7.912C72.0592 8.168 72.7632 8.52 73.1579 8.968C73.5632 9.40533 73.7659 9.97067 73.7659 10.664C73.7659 11.1653 73.6219 11.608 73.3339 11.992C73.0565 12.3653 72.6725 12.6533 72.1819 12.856C71.6912 13.0587 71.1259 13.16 70.4859 13.16ZM76.378 3.24C76.0367 3.24 75.7487 3.13333 75.514 2.92C75.2793 2.70667 75.162 2.42933 75.162 2.088C75.162 1.74667 75.2793 1.46933 75.514 1.256C75.7487 1.04267 76.0367 0.936 76.378 0.936C76.7193 0.936 77.0073 1.04267 77.242 1.256C77.4767 1.46933 77.594 1.74667 77.594 2.088C77.594 2.42933 77.4767 2.70667 77.242 2.92C77.0073 3.13333 76.7193 3.24 76.378 3.24ZM75.546 13C75.4073 13 75.338 12.9307 75.338 12.792V4.92C75.338 4.78133 75.4073 4.712 75.546 4.712H77.21C77.3487 4.712 77.418 4.78133 77.418 4.92V12.792C77.418 12.9307 77.3487 13 77.21 13H75.546ZM83.492 13.16C82.6067 13.16 81.8333 12.9787 81.172 12.616C80.5213 12.2427 80.0147 11.7307 79.652 11.08C79.2893 10.4293 79.108 9.688 79.108 8.856C79.108 8.01333 79.2893 7.272 79.652 6.632C80.0147 5.98133 80.5213 5.47467 81.172 5.112C81.8333 4.73867 82.6067 4.552 83.492 4.552C84.3773 4.552 85.1453 4.73867 85.796 5.112C86.4573 5.47467 86.9693 5.98133 87.332 6.632C87.6947 7.272 87.876 8.01333 87.876 8.856C87.876 9.688 87.6947 10.4293 87.332 11.08C86.9693 11.7307 86.4573 12.2427 85.796 12.616C85.1453 12.9787 84.3773 13.16 83.492 13.16ZM83.492 11.272C84.1533 11.272 84.692 11.048 85.108 10.6C85.524 10.152 85.732 9.57067 85.732 8.856C85.732 8.14133 85.524 7.56 85.108 7.112C84.692 6.664 84.1533 6.44 83.492 6.44C82.8307 6.44 82.292 6.664 81.876 7.112C81.46 7.56 81.252 8.14133 81.252 8.856C81.252 9.57067 81.46 10.152 81.876 10.6C82.292 11.048 82.8307 11.272 83.492 11.272ZM89.7804 13C89.6417 13 89.5724 12.9307 89.5724 12.792V4.92C89.5724 4.78133 89.6417 4.712 89.7804 4.712H91.2844C91.4337 4.712 91.5084 4.78133 91.5084 4.92L91.5564 5.864C91.8657 5.42667 92.2604 5.10133 92.7404 4.888C93.2204 4.664 93.727 4.552 94.2604 4.552C95.2204 4.552 95.9617 4.824 96.4844 5.368C97.0177 5.912 97.2844 6.65867 97.2844 7.608V12.792C97.2844 12.9307 97.215 13 97.0764 13H95.4124C95.2737 13 95.2044 12.9307 95.2044 12.792V8.456C95.2044 7.76267 95.0764 7.256 94.8204 6.936C94.5644 6.60533 94.1644 6.44 93.6204 6.44C93.2897 6.44 92.9697 6.52533 92.6604 6.696C92.3617 6.86667 92.1164 7.12267 91.9244 7.464C91.743 7.80533 91.6524 8.24267 91.6524 8.776V12.792C91.6524 12.9307 91.583 13 91.4444 13H89.7804Z" fill="black"/>
</svg>
